<svg version="1.1" id="Layer_1" xmlns="http://www.w3.org/2000/svg" xmlns:xlink="http://www.w3.org/1999/xlink" x="0px" y="0px"
	 width="100%" viewBox="0 0 286 267" enable-background="new 0 0 286 267" xml:space="preserve">
<path fill="#FFFEFE" opacity="1.000000" stroke="none" 
	d="
M190.000000,268.000000 
	C126.695076,268.000000 63.890156,268.000000 1.042616,268.000000 
	C1.042616,179.068665 1.042616,90.137314 1.042616,1.102980 
	C96.221481,1.102980 191.443100,1.102980 286.832367,1.102980 
	C286.832367,89.999741 286.832367,178.999847 286.832367,268.000000 
	C254.804153,268.000000 222.652084,268.000000 190.000000,268.000000 
M96.500000,231.980301 
	C145.144165,231.980286 193.790146,231.760162 242.431000,232.161591 
	C252.440796,232.244186 257.625092,224.915176 253.392899,215.278076 
	C239.076813,182.679077 225.326263,149.831604 211.375092,117.072487 
	C199.965057,90.280220 188.447266,63.532494 177.273148,36.642063 
	C174.564331,30.123320 170.479889,27.375475 163.505875,27.793764 
	C157.032181,28.182045 150.516830,27.869455 144.019852,27.878403 
	C135.884750,27.889606 133.940186,29.226149 130.795944,36.623962 
	C124.808212,50.711983 118.765617,64.776688 112.754128,78.854630 
	C100.795212,106.860466 88.795425,134.848984 76.913216,162.887344 
	C73.098907,171.887970 77.135971,178.118820 86.864853,178.423172 
	C92.665489,178.604614 98.476372,178.474747 104.282570,178.458298 
	C113.331963,178.432648 115.144615,177.214279 118.583717,168.986313 
	C127.760529,147.031052 136.928436,125.072029 146.135208,103.129326 
	C148.585938,97.288467 151.163971,91.501030 154.143890,84.627213 
	C169.422379,121.124550 184.167984,156.348907 199.259811,192.400330 
	C196.310715,192.400330 194.364426,192.400345 192.418121,192.400345 
	C153.102936,192.400345 113.787262,192.501129 74.473045,192.306274 
	C67.499931,192.271713 63.137707,194.809280 60.703056,201.323074 
	C58.724361,206.616959 56.212963,211.709122 54.063984,216.942566 
	C50.482300,225.665024 54.605122,231.901764 64.014648,231.964050 
	C74.509346,232.033539 85.004845,231.980179 96.500000,231.980301 
M274.520447,259.686829 
	C275.137390,260.331390 275.754364,260.975952 276.371338,261.620483 
	C277.431549,260.249756 278.491760,258.879028 279.340790,257.781372 
	C277.489319,257.175934 276.510651,256.763824 275.490356,256.553406 
	C274.763428,256.403503 273.491791,256.253296 273.312775,256.575409 
	C272.736847,257.611664 272.554871,258.866882 272.220947,260.037598 
	C272.792938,259.940887 273.364929,259.844147 274.520447,259.686829 
z"/>
<path fill="#C91126" opacity="1.000000" stroke="none" 
	d="
M96.000000,231.980286 
	C85.004845,231.980179 74.509346,232.033539 64.014648,231.964050 
	C54.605122,231.901764 50.482300,225.665024 54.063984,216.942566 
	C56.212963,211.709122 58.724361,206.616959 60.703056,201.323074 
	C63.137707,194.809280 67.499931,192.271713 74.473045,192.306274 
	C113.787262,192.501129 153.102936,192.400345 192.418121,192.400345 
	C194.364426,192.400345 196.310715,192.400330 199.259811,192.400330 
	C184.167984,156.348907 169.422379,121.124550 154.143890,84.627213 
	C151.163971,91.501030 148.585938,97.288467 146.135208,103.129326 
	C136.928436,125.072029 127.760529,147.031052 118.583717,168.986313 
	C115.144615,177.214279 113.331963,178.432648 104.282570,178.458298 
	C98.476372,178.474747 92.665489,178.604614 86.864853,178.423172 
	C77.135971,178.118820 73.098907,171.887970 76.913216,162.887344 
	C88.795425,134.848984 100.795212,106.860466 112.754128,78.854630 
	C118.765617,64.776688 124.808212,50.711983 130.795944,36.623962 
	C133.940186,29.226149 135.884750,27.889606 144.019852,27.878403 
	C150.516830,27.869455 157.032181,28.182045 163.505875,27.793764 
	C170.479889,27.375475 174.564331,30.123320 177.273148,36.642063 
	C188.447266,63.532494 199.965057,90.280220 211.375092,117.072487 
	C225.326263,149.831604 239.076813,182.679077 253.392899,215.278076 
	C257.625092,224.915176 252.440796,232.244186 242.431000,232.161591 
	C193.790146,231.760162 145.144165,231.980286 96.000000,231.980286 
z"/>
<path fill="#F0E6E7" opacity="1.000000" stroke="none" 
	d="
M274.228699,259.717102 
	C273.364929,259.844147 272.792938,259.940887 272.220947,260.037598 
	C272.554871,258.866882 272.736847,257.611664 273.312775,256.575409 
	C273.491791,256.253296 274.763428,256.403503 275.490356,256.553406 
	C276.510651,256.763824 277.489319,257.175934 279.340790,257.781372 
	C278.491760,258.879028 277.431549,260.249756 276.371338,261.620483 
	C275.754364,260.975952 275.137390,260.331390 274.228699,259.717102 
z"/>
</svg>